<?xml version="1.0" encoding="UTF-8" standalone="no"?><!DOCTYPE svg PUBLIC "-//W3C//DTD SVG 1.1//EN" "http://www.w3.org/Graphics/SVG/1.1/DTD/svg11.dtd"><svg width="100%" height="100%" viewBox="0 0 32 16" version="1.1" xmlns="http://www.w3.org/2000/svg" xmlns:xlink="http://www.w3.org/1999/xlink" xml:space="preserve" xmlns:serif="http://www.serif.com/" style="fill-rule:evenodd;clip-rule:evenodd;stroke-linejoin:round;stroke-miterlimit:2;"><rect id="Bongo" x="0" y="0" width="32" height="16" style="fill:none;"/><ellipse cx="11.267" cy="2.557" rx="4.816" ry="1.04" style="fill:#fff;fill-opacity:0.94;"/><path d="M6.451,4.294c0,0.343 0.772,0.648 1.96,0.838l0.196,0.412l-0,1.015l-0.365,0.624l0.494,1.04l0.494,-0.843l-0.362,-0.762l-0,-1.029l0.215,-0.368c0.656,0.073 1.398,0.113 2.184,0.113c0.786,0 1.528,-0.04 2.184,-0.113l0.215,0.368l0,1.029l-0.362,0.762l0.494,0.843l0.494,-1.04l-0.365,-0.624l-0,-1.015l0.196,-0.412c1.188,-0.19 1.96,-0.495 1.96,-0.838l-0,5.277c-0.001,0.985 -0.191,2.272 -0.584,3.015c-0.246,0.465 -1.477,1.897 -4.232,1.897l-0.032,0c-2.733,-0.011 -3.955,-1.434 -4.2,-1.897c-0.393,-0.743 -0.583,-2.03 -0.584,-3.015l0,-5.277Zm0,-0.723c0,0.574 2.158,1.04 4.816,1.04c2.658,0 4.816,-0.466 4.816,-1.04l-0,0.318c-0,0.574 -2.158,1.04 -4.816,1.04c-2.658,-0 -4.816,-0.466 -4.816,-1.04l0,-0.318Z" style="fill:#fff;fill-opacity:0.94;"/><ellipse cx="21.905" cy="2.645" rx="3.644" ry="0.787" style="fill:#fff;fill-opacity:0.94;"/><path d="M25.549,3.96c-0,0.259 -0.584,0.49 -1.483,0.633l-0.148,0.312l-0,0.769l0.276,0.471l-0.374,0.788l-0.373,-0.638l0.273,-0.577l0,-0.779l-0.163,-0.278c-0.496,0.055 -1.057,0.086 -1.652,0.086c-0.595,-0 -1.156,-0.031 -1.652,-0.086l-0.163,0.278l-0,0.779l0.273,0.577l-0.374,0.638l-0.373,-0.788l0.276,-0.471l0,-0.769l-0.148,-0.312c-0.899,-0.143 -1.483,-0.374 -1.483,-0.633l-0,3.992c0,0.746 0.144,1.72 0.442,2.282c0.186,0.351 1.117,1.435 3.202,1.435l0.024,0c2.068,-0.008 2.993,-1.085 3.178,-1.435c0.297,-0.562 0.441,-1.536 0.442,-2.282l-0,-3.992Zm-0,-0.547c-0,0.434 -1.633,0.787 -3.644,0.787c-2.011,-0 -3.644,-0.353 -3.644,-0.787l-0,0.24c-0,0.434 1.633,0.787 3.644,0.787c2.011,-0 3.644,-0.353 3.644,-0.787l-0,-0.24Z" style="fill:#fff;fill-opacity:0.94;"/><rect x="16.319" y="4.801" width="1.716" height="0.759" style="fill:#fff;fill-opacity:0.94;"/><rect x="16.319" y="4.477" width="1.716" height="0.172" style="fill:#fff;fill-opacity:0.94;"/><rect x="16.319" y="8.054" width="1.716" height="0.759" style="fill:#fff;fill-opacity:0.94;"/><rect x="16.81" y="4.801" width="0.733" height="3.253" style="fill:#fff;fill-opacity:0.94;"/></svg>